<svg xmlns="http://www.w3.org/2000/svg" width="1214" height="1768" viewBox="0 0 1214 1768">
<defs><marker id="arrow" markerWidth="10" markerHeight="10" refX="8" refY="3" orient="auto" markerUnits="strokeWidth"><path d="M0,0 L0,6 L9,3 z" fill="#64748b"/></marker><filter id="shadow" x="-20%" y="-20%" width="140%" height="140%"><feDropShadow dx="0" dy="6" stdDeviation="8" flood-color="#0f172a" flood-opacity="0.16"/></filter></defs>
<rect width="100%" height="100%" fill="#f8fafc"/>
<text x="40" y="28" font-family="Inter, Segoe UI, Arial" font-size="18" font-weight="700" fill="#0f172a">UniCode Database ERD</text>
<path d="M 442 206 C 406 206, 406 134, 370 134" fill="none" stroke="#64748b" stroke-width="1.4" marker-end="url(#arrow)" opacity="0.78"/>
<path d="M 844 266 C 808 266, 808 206, 772 206" fill="none" stroke="#64748b" stroke-width="1.4" marker-end="url(#arrow)" opacity="0.78"/>
<path d="M 772 602 C 808 602, 808 266, 844 266" fill="none" stroke="#64748b" stroke-width="1.4" marker-end="url(#arrow)" opacity="0.78"/>
<path d="M 442 602 C 406 602, 406 626, 370 626" fill="none" stroke="#64748b" stroke-width="1.4" marker-end="url(#arrow)" opacity="0.78"/>
<path d="M 844 830 C 808 830, 808 206, 772 206" fill="none" stroke="#64748b" stroke-width="1.4" marker-end="url(#arrow)" opacity="0.78"/>
<path d="M 844 830 C 1009 830, 1009 266, 1174 266" fill="none" stroke="#64748b" stroke-width="1.4" marker-end="url(#arrow)" opacity="0.78"/>
<path d="M 844 830 C 607 830, 607 1310, 370 1310" fill="none" stroke="#64748b" stroke-width="1.4" marker-end="url(#arrow)" opacity="0.78"/>
<path d="M 370 1310 C 406 1310, 406 206, 442 206" fill="none" stroke="#64748b" stroke-width="1.4" marker-end="url(#arrow)" opacity="0.78"/>
<path d="M 442 1238 C 406 1238, 406 1310, 370 1310" fill="none" stroke="#64748b" stroke-width="1.4" marker-end="url(#arrow)" opacity="0.78"/>
<path d="M 772 1238 C 808 1238, 808 266, 844 266" fill="none" stroke="#64748b" stroke-width="1.4" marker-end="url(#arrow)" opacity="0.78"/>
<path d="M 844 1250 C 607 1250, 607 1310, 370 1310" fill="none" stroke="#64748b" stroke-width="1.4" marker-end="url(#arrow)" opacity="0.78"/>
<path d="M 844 1250 C 808 1250, 808 206, 772 206" fill="none" stroke="#64748b" stroke-width="1.4" marker-end="url(#arrow)" opacity="0.78"/>
<path d="M 370 1622 C 406 1622, 406 206, 442 206" fill="none" stroke="#64748b" stroke-width="1.4" marker-end="url(#arrow)" opacity="0.78"/>
<g filter="url(#shadow)">
<rect x="40" y="40" width="330" height="188" rx="10" fill="#ffffff" stroke="#cbd5e1"/>
<rect x="40" y="40" width="330" height="44" rx="10" fill="#4f46e5"/>
<path d="M 40 74 H 370 V 84 H 40 Z" fill="#4f46e5"/>
<text x="56" y="68" font-family="Inter, Segoe UI, Arial" font-size="15" font-weight="700" fill="#ffffff">universities</text>
<rect x="52" y="89" width="26" height="14" rx="4" fill="#dcfce7"/><text x="65" y="100" text-anchor="middle" font-family="Inter, Segoe UI, Arial" font-size="9" font-weight="700" fill="#166534">PK</text>
<text x="86" y="100" font-family="Inter, Segoe UI, Arial" font-size="12" fill="#0f172a">id</text>
<text x="356" y="100" text-anchor="end" font-family="Inter, Segoe UI, Arial" font-size="11" fill="#64748b">text</text>
<rect x="40" y="108" width="330" height="24" fill="#f8fafc"/>
<text x="56" y="124" font-family="Inter, Segoe UI, Arial" font-size="12" fill="#0f172a">name</text>
<text x="356" y="124" text-anchor="end" font-family="Inter, Segoe UI, Arial" font-size="11" fill="#64748b">text</text>
<text x="56" y="148" font-family="Inter, Segoe UI, Arial" font-size="12" fill="#0f172a">domain</text>
<text x="356" y="148" text-anchor="end" font-family="Inter, Segoe UI, Arial" font-size="11" fill="#64748b">text</text>
<rect x="40" y="156" width="330" height="24" fill="#f8fafc"/>
<text x="56" y="172" font-family="Inter, Segoe UI, Arial" font-size="12" fill="#0f172a">logoUrl</text>
<text x="356" y="172" text-anchor="end" font-family="Inter, Segoe UI, Arial" font-size="11" fill="#64748b">text</text>
<text x="56" y="196" font-family="Inter, Segoe UI, Arial" font-size="12" fill="#0f172a">createdAt</text>
<text x="356" y="196" text-anchor="end" font-family="Inter, Segoe UI, Arial" font-size="11" fill="#64748b">timestamp without time zone</text>
<rect x="40" y="204" width="330" height="24" fill="#f8fafc"/>
<text x="56" y="220" font-family="Inter, Segoe UI, Arial" font-size="12" fill="#0f172a">updatedAt</text>
<text x="356" y="220" text-anchor="end" font-family="Inter, Segoe UI, Arial" font-size="11" fill="#64748b">timestamp without time zone</text>
</g>
<g filter="url(#shadow)">
<rect x="442" y="40" width="330" height="332" rx="10" fill="#ffffff" stroke="#cbd5e1"/>
<rect x="442" y="40" width="330" height="44" rx="10" fill="#4f46e5"/>
<path d="M 442 74 H 772 V 84 H 442 Z" fill="#4f46e5"/>
<text x="458" y="68" font-family="Inter, Segoe UI, Arial" font-size="15" font-weight="700" fill="#ffffff">users</text>
<rect x="454" y="89" width="26" height="14" rx="4" fill="#dcfce7"/><text x="467" y="100" text-anchor="middle" font-family="Inter, Segoe UI, Arial" font-size="9" font-weight="700" fill="#166534">PK</text>
<text x="488" y="100" font-family="Inter, Segoe UI, Arial" font-size="12" fill="#0f172a">id</text>
<text x="758" y="100" text-anchor="end" font-family="Inter, Segoe UI, Arial" font-size="11" fill="#64748b">text</text>
<rect x="442" y="108" width="330" height="24" fill="#f8fafc"/>
<text x="458" y="124" font-family="Inter, Segoe UI, Arial" font-size="12" fill="#0f172a">email</text>
<text x="758" y="124" text-anchor="end" font-family="Inter, Segoe UI, Arial" font-size="11" fill="#64748b">text</text>
<text x="458" y="148" font-family="Inter, Segoe UI, Arial" font-size="12" fill="#0f172a">name</text>
<text x="758" y="148" text-anchor="end" font-family="Inter, Segoe UI, Arial" font-size="11" fill="#64748b">text</text>
<rect x="442" y="156" width="330" height="24" fill="#f8fafc"/>
<text x="458" y="172" font-family="Inter, Segoe UI, Arial" font-size="12" fill="#0f172a">passwordHash</text>
<text x="758" y="172" text-anchor="end" font-family="Inter, Segoe UI, Arial" font-size="11" fill="#64748b">text</text>
<text x="458" y="196" font-family="Inter, Segoe UI, Arial" font-size="12" fill="#0f172a">role</text>
<text x="758" y="196" text-anchor="end" font-family="Inter, Segoe UI, Arial" font-size="11" fill="#64748b">enum</text>
<rect x="442" y="204" width="330" height="24" fill="#f8fafc"/>
<text x="458" y="220" font-family="Inter, Segoe UI, Arial" font-size="12" fill="#0f172a">totalPoints</text>
<text x="758" y="220" text-anchor="end" font-family="Inter, Segoe UI, Arial" font-size="11" fill="#64748b">integer</text>
<text x="458" y="244" font-family="Inter, Segoe UI, Arial" font-size="12" fill="#0f172a">avatarUrl</text>
<text x="758" y="244" text-anchor="end" font-family="Inter, Segoe UI, Arial" font-size="11" fill="#64748b">text</text>
<rect x="442" y="252" width="330" height="24" fill="#f8fafc"/>
<text x="458" y="268" font-family="Inter, Segoe UI, Arial" font-size="12" fill="#0f172a">isActive</text>
<text x="758" y="268" text-anchor="end" font-family="Inter, Segoe UI, Arial" font-size="11" fill="#64748b">boolean</text>
<text x="458" y="292" font-family="Inter, Segoe UI, Arial" font-size="12" fill="#0f172a">createdAt</text>
<text x="758" y="292" text-anchor="end" font-family="Inter, Segoe UI, Arial" font-size="11" fill="#64748b">timestamp without time zone</text>
<rect x="442" y="300" width="330" height="24" fill="#f8fafc"/>
<text x="458" y="316" font-family="Inter, Segoe UI, Arial" font-size="12" fill="#0f172a">updatedAt</text>
<text x="758" y="316" text-anchor="end" font-family="Inter, Segoe UI, Arial" font-size="11" fill="#64748b">timestamp without time zone</text>
<rect x="454" y="329" width="26" height="14" rx="4" fill="#e0f2fe"/><text x="467" y="340" text-anchor="middle" font-family="Inter, Segoe UI, Arial" font-size="9" font-weight="700" fill="#0369a1">FK</text>
<text x="488" y="340" font-family="Inter, Segoe UI, Arial" font-size="12" fill="#0f172a">universityId</text>
<text x="758" y="340" text-anchor="end" font-family="Inter, Segoe UI, Arial" font-size="11" fill="#64748b">text</text>
<rect x="442" y="348" width="330" height="24" fill="#f8fafc"/>
<text x="458" y="364" font-family="Inter, Segoe UI, Arial" font-size="12" fill="#0f172a">emailVerifiedAt</text>
<text x="758" y="364" text-anchor="end" font-family="Inter, Segoe UI, Arial" font-size="11" fill="#64748b">timestamp without time zone</text>
</g>
<g filter="url(#shadow)">
<rect x="844" y="40" width="330" height="452" rx="10" fill="#ffffff" stroke="#cbd5e1"/>
<rect x="844" y="40" width="330" height="44" rx="10" fill="#4f46e5"/>
<path d="M 844 74 H 1174 V 84 H 844 Z" fill="#4f46e5"/>
<text x="860" y="68" font-family="Inter, Segoe UI, Arial" font-size="15" font-weight="700" fill="#ffffff">problems</text>
<rect x="856" y="89" width="26" height="14" rx="4" fill="#dcfce7"/><text x="869" y="100" text-anchor="middle" font-family="Inter, Segoe UI, Arial" font-size="9" font-weight="700" fill="#166534">PK</text>
<text x="890" y="100" font-family="Inter, Segoe UI, Arial" font-size="12" fill="#0f172a">id</text>
<text x="1160" y="100" text-anchor="end" font-family="Inter, Segoe UI, Arial" font-size="11" fill="#64748b">text</text>
<rect x="844" y="108" width="330" height="24" fill="#f8fafc"/>
<text x="860" y="124" font-family="Inter, Segoe UI, Arial" font-size="12" fill="#0f172a">title</text>
<text x="1160" y="124" text-anchor="end" font-family="Inter, Segoe UI, Arial" font-size="11" fill="#64748b">text</text>
<text x="860" y="148" font-family="Inter, Segoe UI, Arial" font-size="12" fill="#0f172a">slug</text>
<text x="1160" y="148" text-anchor="end" font-family="Inter, Segoe UI, Arial" font-size="11" fill="#64748b">text</text>
<rect x="844" y="156" width="330" height="24" fill="#f8fafc"/>
<text x="860" y="172" font-family="Inter, Segoe UI, Arial" font-size="12" fill="#0f172a">description</text>
<text x="1160" y="172" text-anchor="end" font-family="Inter, Segoe UI, Arial" font-size="11" fill="#64748b">text</text>
<text x="860" y="196" font-family="Inter, Segoe UI, Arial" font-size="12" fill="#0f172a">difficulty</text>
<text x="1160" y="196" text-anchor="end" font-family="Inter, Segoe UI, Arial" font-size="11" fill="#64748b">enum</text>
<rect x="844" y="204" width="330" height="24" fill="#f8fafc"/>
<text x="860" y="220" font-family="Inter, Segoe UI, Arial" font-size="12" fill="#0f172a">points</text>
<text x="1160" y="220" text-anchor="end" font-family="Inter, Segoe UI, Arial" font-size="11" fill="#64748b">integer</text>
<text x="860" y="244" font-family="Inter, Segoe UI, Arial" font-size="12" fill="#0f172a">timeLimit</text>
<text x="1160" y="244" text-anchor="end" font-family="Inter, Segoe UI, Arial" font-size="11" fill="#64748b">integer</text>
<rect x="844" y="252" width="330" height="24" fill="#f8fafc"/>
<text x="860" y="268" font-family="Inter, Segoe UI, Arial" font-size="12" fill="#0f172a">memoryLimit</text>
<text x="1160" y="268" text-anchor="end" font-family="Inter, Segoe UI, Arial" font-size="11" fill="#64748b">integer</text>
<text x="860" y="292" font-family="Inter, Segoe UI, Arial" font-size="12" fill="#0f172a">isPublished</text>
<text x="1160" y="292" text-anchor="end" font-family="Inter, Segoe UI, Arial" font-size="11" fill="#64748b">boolean</text>
<rect x="844" y="300" width="330" height="24" fill="#f8fafc"/>
<text x="860" y="316" font-family="Inter, Segoe UI, Arial" font-size="12" fill="#0f172a">testCases</text>
<text x="1160" y="316" text-anchor="end" font-family="Inter, Segoe UI, Arial" font-size="11" fill="#64748b">jsonb</text>
<text x="860" y="340" font-family="Inter, Segoe UI, Arial" font-size="12" fill="#0f172a">starterCode</text>
<text x="1160" y="340" text-anchor="end" font-family="Inter, Segoe UI, Arial" font-size="11" fill="#64748b">jsonb</text>
<rect x="844" y="348" width="330" height="24" fill="#f8fafc"/>
<text x="860" y="364" font-family="Inter, Segoe UI, Arial" font-size="12" fill="#0f172a">constraints</text>
<text x="1160" y="364" text-anchor="end" font-family="Inter, Segoe UI, Arial" font-size="11" fill="#64748b">text</text>
<text x="860" y="388" font-family="Inter, Segoe UI, Arial" font-size="12" fill="#0f172a">examples</text>
<text x="1160" y="388" text-anchor="end" font-family="Inter, Segoe UI, Arial" font-size="11" fill="#64748b">jsonb</text>
<rect x="844" y="396" width="330" height="24" fill="#f8fafc"/>
<text x="860" y="412" font-family="Inter, Segoe UI, Arial" font-size="12" fill="#0f172a">hints</text>
<text x="1160" y="412" text-anchor="end" font-family="Inter, Segoe UI, Arial" font-size="11" fill="#64748b">jsonb</text>
<text x="860" y="436" font-family="Inter, Segoe UI, Arial" font-size="12" fill="#0f172a">createdAt</text>
<text x="1160" y="436" text-anchor="end" font-family="Inter, Segoe UI, Arial" font-size="11" fill="#64748b">timestamp without time zone</text>
<rect x="844" y="444" width="330" height="24" fill="#f8fafc"/>
<text x="860" y="460" font-family="Inter, Segoe UI, Arial" font-size="12" fill="#0f172a">updatedAt</text>
<text x="1160" y="460" text-anchor="end" font-family="Inter, Segoe UI, Arial" font-size="11" fill="#64748b">timestamp without time zone</text>
<rect x="856" y="473" width="26" height="14" rx="4" fill="#e0f2fe"/><text x="869" y="484" text-anchor="middle" font-family="Inter, Segoe UI, Arial" font-size="9" font-weight="700" fill="#0369a1">FK</text>
<text x="890" y="484" font-family="Inter, Segoe UI, Arial" font-size="12" fill="#0f172a">createdById</text>
<text x="1160" y="484" text-anchor="end" font-family="Inter, Segoe UI, Arial" font-size="11" fill="#64748b">text</text>
</g>
<g filter="url(#shadow)">
<rect x="40" y="556" width="330" height="140" rx="10" fill="#ffffff" stroke="#cbd5e1"/>
<rect x="40" y="556" width="330" height="44" rx="10" fill="#4f46e5"/>
<path d="M 40 590 H 370 V 600 H 40 Z" fill="#4f46e5"/>
<text x="56" y="584" font-family="Inter, Segoe UI, Arial" font-size="15" font-weight="700" fill="#ffffff">tags</text>
<rect x="52" y="605" width="26" height="14" rx="4" fill="#dcfce7"/><text x="65" y="616" text-anchor="middle" font-family="Inter, Segoe UI, Arial" font-size="9" font-weight="700" fill="#166534">PK</text>
<text x="86" y="616" font-family="Inter, Segoe UI, Arial" font-size="12" fill="#0f172a">id</text>
<text x="356" y="616" text-anchor="end" font-family="Inter, Segoe UI, Arial" font-size="11" fill="#64748b">text</text>
<rect x="40" y="624" width="330" height="24" fill="#f8fafc"/>
<text x="56" y="640" font-family="Inter, Segoe UI, Arial" font-size="12" fill="#0f172a">name</text>
<text x="356" y="640" text-anchor="end" font-family="Inter, Segoe UI, Arial" font-size="11" fill="#64748b">text</text>
<text x="56" y="664" font-family="Inter, Segoe UI, Arial" font-size="12" fill="#0f172a">category</text>
<text x="356" y="664" text-anchor="end" font-family="Inter, Segoe UI, Arial" font-size="11" fill="#64748b">text</text>
<rect x="40" y="672" width="330" height="24" fill="#f8fafc"/>
<text x="56" y="688" font-family="Inter, Segoe UI, Arial" font-size="12" fill="#0f172a">color</text>
<text x="356" y="688" text-anchor="end" font-family="Inter, Segoe UI, Arial" font-size="11" fill="#64748b">text</text>
</g>
<g filter="url(#shadow)">
<rect x="442" y="556" width="330" height="92" rx="10" fill="#ffffff" stroke="#cbd5e1"/>
<rect x="442" y="556" width="330" height="44" rx="10" fill="#4f46e5"/>
<path d="M 442 590 H 772 V 600 H 442 Z" fill="#4f46e5"/>
<text x="458" y="584" font-family="Inter, Segoe UI, Arial" font-size="15" font-weight="700" fill="#ffffff">problem_tags</text>
<rect x="454" y="605" width="26" height="14" rx="4" fill="#dcfce7"/><text x="467" y="616" text-anchor="middle" font-family="Inter, Segoe UI, Arial" font-size="9" font-weight="700" fill="#166534">PK</text>
<text x="488" y="616" font-family="Inter, Segoe UI, Arial" font-size="12" fill="#0f172a">problemId</text>
<text x="758" y="616" text-anchor="end" font-family="Inter, Segoe UI, Arial" font-size="11" fill="#64748b">text</text>
<rect x="442" y="624" width="330" height="24" fill="#f8fafc"/>
<rect x="454" y="629" width="26" height="14" rx="4" fill="#dcfce7"/><text x="467" y="640" text-anchor="middle" font-family="Inter, Segoe UI, Arial" font-size="9" font-weight="700" fill="#166534">PK</text>
<text x="488" y="640" font-family="Inter, Segoe UI, Arial" font-size="12" fill="#0f172a">tagId</text>
<text x="758" y="640" text-anchor="end" font-family="Inter, Segoe UI, Arial" font-size="11" fill="#64748b">text</text>
</g>
<g filter="url(#shadow)">
<rect x="844" y="556" width="330" height="548" rx="10" fill="#ffffff" stroke="#cbd5e1"/>
<rect x="844" y="556" width="330" height="44" rx="10" fill="#4f46e5"/>
<path d="M 844 590 H 1174 V 600 H 844 Z" fill="#4f46e5"/>
<text x="860" y="584" font-family="Inter, Segoe UI, Arial" font-size="15" font-weight="700" fill="#ffffff">submissions</text>
<rect x="856" y="605" width="26" height="14" rx="4" fill="#dcfce7"/><text x="869" y="616" text-anchor="middle" font-family="Inter, Segoe UI, Arial" font-size="9" font-weight="700" fill="#166534">PK</text>
<text x="890" y="616" font-family="Inter, Segoe UI, Arial" font-size="12" fill="#0f172a">id</text>
<text x="1160" y="616" text-anchor="end" font-family="Inter, Segoe UI, Arial" font-size="11" fill="#64748b">text</text>
<rect x="844" y="624" width="330" height="24" fill="#f8fafc"/>
<text x="860" y="640" font-family="Inter, Segoe UI, Arial" font-size="12" fill="#0f172a">code</text>
<text x="1160" y="640" text-anchor="end" font-family="Inter, Segoe UI, Arial" font-size="11" fill="#64748b">text</text>
<text x="860" y="664" font-family="Inter, Segoe UI, Arial" font-size="12" fill="#0f172a">language</text>
<text x="1160" y="664" text-anchor="end" font-family="Inter, Segoe UI, Arial" font-size="11" fill="#64748b">text</text>
<rect x="844" y="672" width="330" height="24" fill="#f8fafc"/>
<text x="860" y="688" font-family="Inter, Segoe UI, Arial" font-size="12" fill="#0f172a">status</text>
<text x="1160" y="688" text-anchor="end" font-family="Inter, Segoe UI, Arial" font-size="11" fill="#64748b">enum</text>
<text x="860" y="712" font-family="Inter, Segoe UI, Arial" font-size="12" fill="#0f172a">runtimeMs</text>
<text x="1160" y="712" text-anchor="end" font-family="Inter, Segoe UI, Arial" font-size="11" fill="#64748b">integer</text>
<rect x="844" y="720" width="330" height="24" fill="#f8fafc"/>
<text x="860" y="736" font-family="Inter, Segoe UI, Arial" font-size="12" fill="#0f172a">memoryKb</text>
<text x="1160" y="736" text-anchor="end" font-family="Inter, Segoe UI, Arial" font-size="11" fill="#64748b">integer</text>
<text x="860" y="760" font-family="Inter, Segoe UI, Arial" font-size="12" fill="#0f172a">testResults</text>
<text x="1160" y="760" text-anchor="end" font-family="Inter, Segoe UI, Arial" font-size="11" fill="#64748b">jsonb</text>
<rect x="844" y="768" width="330" height="24" fill="#f8fafc"/>
<text x="860" y="784" font-family="Inter, Segoe UI, Arial" font-size="12" fill="#0f172a">errorMsg</text>
<text x="1160" y="784" text-anchor="end" font-family="Inter, Segoe UI, Arial" font-size="11" fill="#64748b">text</text>
<text x="860" y="808" font-family="Inter, Segoe UI, Arial" font-size="12" fill="#0f172a">pointsAwarded</text>
<text x="1160" y="808" text-anchor="end" font-family="Inter, Segoe UI, Arial" font-size="11" fill="#64748b">integer</text>
<rect x="844" y="816" width="330" height="24" fill="#f8fafc"/>
<text x="860" y="832" font-family="Inter, Segoe UI, Arial" font-size="12" fill="#0f172a">submittedAt</text>
<text x="1160" y="832" text-anchor="end" font-family="Inter, Segoe UI, Arial" font-size="11" fill="#64748b">timestamp without time zone</text>
<rect x="856" y="845" width="26" height="14" rx="4" fill="#e0f2fe"/><text x="869" y="856" text-anchor="middle" font-family="Inter, Segoe UI, Arial" font-size="9" font-weight="700" fill="#0369a1">FK</text>
<text x="890" y="856" font-family="Inter, Segoe UI, Arial" font-size="12" fill="#0f172a">userId</text>
<text x="1160" y="856" text-anchor="end" font-family="Inter, Segoe UI, Arial" font-size="11" fill="#64748b">text</text>
<rect x="844" y="864" width="330" height="24" fill="#f8fafc"/>
<rect x="856" y="869" width="26" height="14" rx="4" fill="#e0f2fe"/><text x="869" y="880" text-anchor="middle" font-family="Inter, Segoe UI, Arial" font-size="9" font-weight="700" fill="#0369a1">FK</text>
<text x="890" y="880" font-family="Inter, Segoe UI, Arial" font-size="12" fill="#0f172a">problemId</text>
<text x="1160" y="880" text-anchor="end" font-family="Inter, Segoe UI, Arial" font-size="11" fill="#64748b">text</text>
<rect x="856" y="893" width="26" height="14" rx="4" fill="#e0f2fe"/><text x="869" y="904" text-anchor="middle" font-family="Inter, Segoe UI, Arial" font-size="9" font-weight="700" fill="#0369a1">FK</text>
<text x="890" y="904" font-family="Inter, Segoe UI, Arial" font-size="12" fill="#0f172a">contestId</text>
<text x="1160" y="904" text-anchor="end" font-family="Inter, Segoe UI, Arial" font-size="11" fill="#64748b">text</text>
<rect x="844" y="912" width="330" height="24" fill="#f8fafc"/>
<text x="860" y="928" font-family="Inter, Segoe UI, Arial" font-size="12" fill="#0f172a">aiComplexityBonus</text>
<text x="1160" y="928" text-anchor="end" font-family="Inter, Segoe UI, Arial" font-size="11" fill="#64748b">integer</text>
<text x="860" y="952" font-family="Inter, Segoe UI, Arial" font-size="12" fill="#0f172a">aiComplexityBonusAwarded</text>
<text x="1160" y="952" text-anchor="end" font-family="Inter, Segoe UI, Arial" font-size="11" fill="#64748b">integer</text>
<rect x="844" y="960" width="330" height="24" fill="#f8fafc"/>
<text x="860" y="976" font-family="Inter, Segoe UI, Arial" font-size="12" fill="#0f172a">aiComplexityFeedback</text>
<text x="1160" y="976" text-anchor="end" font-family="Inter, Segoe UI, Arial" font-size="11" fill="#64748b">text</text>
<text x="860" y="1000" font-family="Inter, Segoe UI, Arial" font-size="12" fill="#0f172a">aiComplexityModel</text>
<text x="1160" y="1000" text-anchor="end" font-family="Inter, Segoe UI, Arial" font-size="11" fill="#64748b">text</text>
<rect x="844" y="1008" width="330" height="24" fill="#f8fafc"/>
<text x="860" y="1024" font-family="Inter, Segoe UI, Arial" font-size="12" fill="#0f172a">aiComplexityScore</text>
<text x="1160" y="1024" text-anchor="end" font-family="Inter, Segoe UI, Arial" font-size="11" fill="#64748b">integer</text>
<text x="860" y="1048" font-family="Inter, Segoe UI, Arial" font-size="12" fill="#0f172a">aiComplexityStatus</text>
<text x="1160" y="1048" text-anchor="end" font-family="Inter, Segoe UI, Arial" font-size="11" fill="#64748b">text</text>
<rect x="844" y="1056" width="330" height="24" fill="#f8fafc"/>
<text x="860" y="1072" font-family="Inter, Segoe UI, Arial" font-size="12" fill="#0f172a">aiSpaceComplexity</text>
<text x="1160" y="1072" text-anchor="end" font-family="Inter, Segoe UI, Arial" font-size="11" fill="#64748b">text</text>
<text x="860" y="1096" font-family="Inter, Segoe UI, Arial" font-size="12" fill="#0f172a">aiTimeComplexity</text>
<text x="1160" y="1096" text-anchor="end" font-family="Inter, Segoe UI, Arial" font-size="11" fill="#64748b">text</text>
</g>
<g filter="url(#shadow)">
<rect x="40" y="1168" width="330" height="284" rx="10" fill="#ffffff" stroke="#cbd5e1"/>
<rect x="40" y="1168" width="330" height="44" rx="10" fill="#4f46e5"/>
<path d="M 40 1202 H 370 V 1212 H 40 Z" fill="#4f46e5"/>
<text x="56" y="1196" font-family="Inter, Segoe UI, Arial" font-size="15" font-weight="700" fill="#ffffff">contests</text>
<rect x="52" y="1217" width="26" height="14" rx="4" fill="#dcfce7"/><text x="65" y="1228" text-anchor="middle" font-family="Inter, Segoe UI, Arial" font-size="9" font-weight="700" fill="#166534">PK</text>
<text x="86" y="1228" font-family="Inter, Segoe UI, Arial" font-size="12" fill="#0f172a">id</text>
<text x="356" y="1228" text-anchor="end" font-family="Inter, Segoe UI, Arial" font-size="11" fill="#64748b">text</text>
<rect x="40" y="1236" width="330" height="24" fill="#f8fafc"/>
<text x="56" y="1252" font-family="Inter, Segoe UI, Arial" font-size="12" fill="#0f172a">title</text>
<text x="356" y="1252" text-anchor="end" font-family="Inter, Segoe UI, Arial" font-size="11" fill="#64748b">text</text>
<text x="56" y="1276" font-family="Inter, Segoe UI, Arial" font-size="12" fill="#0f172a">description</text>
<text x="356" y="1276" text-anchor="end" font-family="Inter, Segoe UI, Arial" font-size="11" fill="#64748b">text</text>
<rect x="40" y="1284" width="330" height="24" fill="#f8fafc"/>
<text x="56" y="1300" font-family="Inter, Segoe UI, Arial" font-size="12" fill="#0f172a">startsAt</text>
<text x="356" y="1300" text-anchor="end" font-family="Inter, Segoe UI, Arial" font-size="11" fill="#64748b">timestamp without time zone</text>
<text x="56" y="1324" font-family="Inter, Segoe UI, Arial" font-size="12" fill="#0f172a">endsAt</text>
<text x="356" y="1324" text-anchor="end" font-family="Inter, Segoe UI, Arial" font-size="11" fill="#64748b">timestamp without time zone</text>
<rect x="40" y="1332" width="330" height="24" fill="#f8fafc"/>
<text x="56" y="1348" font-family="Inter, Segoe UI, Arial" font-size="12" fill="#0f172a">isPublic</text>
<text x="356" y="1348" text-anchor="end" font-family="Inter, Segoe UI, Arial" font-size="11" fill="#64748b">boolean</text>
<text x="56" y="1372" font-family="Inter, Segoe UI, Arial" font-size="12" fill="#0f172a">rules</text>
<text x="356" y="1372" text-anchor="end" font-family="Inter, Segoe UI, Arial" font-size="11" fill="#64748b">text</text>
<rect x="40" y="1380" width="330" height="24" fill="#f8fafc"/>
<text x="56" y="1396" font-family="Inter, Segoe UI, Arial" font-size="12" fill="#0f172a">createdAt</text>
<text x="356" y="1396" text-anchor="end" font-family="Inter, Segoe UI, Arial" font-size="11" fill="#64748b">timestamp without time zone</text>
<text x="56" y="1420" font-family="Inter, Segoe UI, Arial" font-size="12" fill="#0f172a">updatedAt</text>
<text x="356" y="1420" text-anchor="end" font-family="Inter, Segoe UI, Arial" font-size="11" fill="#64748b">timestamp without time zone</text>
<rect x="40" y="1428" width="330" height="24" fill="#f8fafc"/>
<rect x="52" y="1433" width="26" height="14" rx="4" fill="#e0f2fe"/><text x="65" y="1444" text-anchor="middle" font-family="Inter, Segoe UI, Arial" font-size="9" font-weight="700" fill="#0369a1">FK</text>
<text x="86" y="1444" font-family="Inter, Segoe UI, Arial" font-size="12" fill="#0f172a">createdById</text>
<text x="356" y="1444" text-anchor="end" font-family="Inter, Segoe UI, Arial" font-size="11" fill="#64748b">text</text>
</g>
<g filter="url(#shadow)">
<rect x="442" y="1168" width="330" height="140" rx="10" fill="#ffffff" stroke="#cbd5e1"/>
<rect x="442" y="1168" width="330" height="44" rx="10" fill="#4f46e5"/>
<path d="M 442 1202 H 772 V 1212 H 442 Z" fill="#4f46e5"/>
<text x="458" y="1196" font-family="Inter, Segoe UI, Arial" font-size="15" font-weight="700" fill="#ffffff">contest_problems</text>
<rect x="454" y="1217" width="26" height="14" rx="4" fill="#dcfce7"/><text x="467" y="1228" text-anchor="middle" font-family="Inter, Segoe UI, Arial" font-size="9" font-weight="700" fill="#166534">PK</text>
<text x="488" y="1228" font-family="Inter, Segoe UI, Arial" font-size="12" fill="#0f172a">contestId</text>
<text x="758" y="1228" text-anchor="end" font-family="Inter, Segoe UI, Arial" font-size="11" fill="#64748b">text</text>
<rect x="442" y="1236" width="330" height="24" fill="#f8fafc"/>
<rect x="454" y="1241" width="26" height="14" rx="4" fill="#dcfce7"/><text x="467" y="1252" text-anchor="middle" font-family="Inter, Segoe UI, Arial" font-size="9" font-weight="700" fill="#166534">PK</text>
<text x="488" y="1252" font-family="Inter, Segoe UI, Arial" font-size="12" fill="#0f172a">problemId</text>
<text x="758" y="1252" text-anchor="end" font-family="Inter, Segoe UI, Arial" font-size="11" fill="#64748b">text</text>
<text x="458" y="1276" font-family="Inter, Segoe UI, Arial" font-size="12" fill="#0f172a">orderIndex</text>
<text x="758" y="1276" text-anchor="end" font-family="Inter, Segoe UI, Arial" font-size="11" fill="#64748b">integer</text>
<rect x="442" y="1284" width="330" height="24" fill="#f8fafc"/>
<text x="458" y="1300" font-family="Inter, Segoe UI, Arial" font-size="12" fill="#0f172a">pointOverride</text>
<text x="758" y="1300" text-anchor="end" font-family="Inter, Segoe UI, Arial" font-size="11" fill="#64748b">integer</text>
</g>
<g filter="url(#shadow)">
<rect x="844" y="1168" width="330" height="164" rx="10" fill="#ffffff" stroke="#cbd5e1"/>
<rect x="844" y="1168" width="330" height="44" rx="10" fill="#4f46e5"/>
<path d="M 844 1202 H 1174 V 1212 H 844 Z" fill="#4f46e5"/>
<text x="860" y="1196" font-family="Inter, Segoe UI, Arial" font-size="15" font-weight="700" fill="#ffffff">contest_participants</text>
<rect x="856" y="1217" width="26" height="14" rx="4" fill="#dcfce7"/><text x="869" y="1228" text-anchor="middle" font-family="Inter, Segoe UI, Arial" font-size="9" font-weight="700" fill="#166534">PK</text>
<text x="890" y="1228" font-family="Inter, Segoe UI, Arial" font-size="12" fill="#0f172a">contestId</text>
<text x="1160" y="1228" text-anchor="end" font-family="Inter, Segoe UI, Arial" font-size="11" fill="#64748b">text</text>
<rect x="844" y="1236" width="330" height="24" fill="#f8fafc"/>
<rect x="856" y="1241" width="26" height="14" rx="4" fill="#dcfce7"/><text x="869" y="1252" text-anchor="middle" font-family="Inter, Segoe UI, Arial" font-size="9" font-weight="700" fill="#166534">PK</text>
<text x="890" y="1252" font-family="Inter, Segoe UI, Arial" font-size="12" fill="#0f172a">userId</text>
<text x="1160" y="1252" text-anchor="end" font-family="Inter, Segoe UI, Arial" font-size="11" fill="#64748b">text</text>
<text x="860" y="1276" font-family="Inter, Segoe UI, Arial" font-size="12" fill="#0f172a">score</text>
<text x="1160" y="1276" text-anchor="end" font-family="Inter, Segoe UI, Arial" font-size="11" fill="#64748b">integer</text>
<rect x="844" y="1284" width="330" height="24" fill="#f8fafc"/>
<text x="860" y="1300" font-family="Inter, Segoe UI, Arial" font-size="12" fill="#0f172a">rank</text>
<text x="1160" y="1300" text-anchor="end" font-family="Inter, Segoe UI, Arial" font-size="11" fill="#64748b">integer</text>
<text x="860" y="1324" font-family="Inter, Segoe UI, Arial" font-size="12" fill="#0f172a">joinedAt</text>
<text x="1160" y="1324" text-anchor="end" font-family="Inter, Segoe UI, Arial" font-size="11" fill="#64748b">timestamp without time zone</text>
</g>
<g filter="url(#shadow)">
<rect x="40" y="1516" width="330" height="212" rx="10" fill="#ffffff" stroke="#cbd5e1"/>
<rect x="40" y="1516" width="330" height="44" rx="10" fill="#4f46e5"/>
<path d="M 40 1550 H 370 V 1560 H 40 Z" fill="#4f46e5"/>
<text x="56" y="1544" font-family="Inter, Segoe UI, Arial" font-size="15" font-weight="700" fill="#ffffff">email_verifications</text>
<rect x="52" y="1565" width="26" height="14" rx="4" fill="#dcfce7"/><text x="65" y="1576" text-anchor="middle" font-family="Inter, Segoe UI, Arial" font-size="9" font-weight="700" fill="#166534">PK</text>
<text x="86" y="1576" font-family="Inter, Segoe UI, Arial" font-size="12" fill="#0f172a">id</text>
<text x="356" y="1576" text-anchor="end" font-family="Inter, Segoe UI, Arial" font-size="11" fill="#64748b">text</text>
<rect x="40" y="1584" width="330" height="24" fill="#f8fafc"/>
<text x="56" y="1600" font-family="Inter, Segoe UI, Arial" font-size="12" fill="#0f172a">email</text>
<text x="356" y="1600" text-anchor="end" font-family="Inter, Segoe UI, Arial" font-size="11" fill="#64748b">text</text>
<text x="56" y="1624" font-family="Inter, Segoe UI, Arial" font-size="12" fill="#0f172a">codeHash</text>
<text x="356" y="1624" text-anchor="end" font-family="Inter, Segoe UI, Arial" font-size="11" fill="#64748b">text</text>
<rect x="40" y="1632" width="330" height="24" fill="#f8fafc"/>
<text x="56" y="1648" font-family="Inter, Segoe UI, Arial" font-size="12" fill="#0f172a">expiresAt</text>
<text x="356" y="1648" text-anchor="end" font-family="Inter, Segoe UI, Arial" font-size="11" fill="#64748b">timestamp without time zone</text>
<text x="56" y="1672" font-family="Inter, Segoe UI, Arial" font-size="12" fill="#0f172a">consumedAt</text>
<text x="356" y="1672" text-anchor="end" font-family="Inter, Segoe UI, Arial" font-size="11" fill="#64748b">timestamp without time zone</text>
<rect x="40" y="1680" width="330" height="24" fill="#f8fafc"/>
<text x="56" y="1696" font-family="Inter, Segoe UI, Arial" font-size="12" fill="#0f172a">createdAt</text>
<text x="356" y="1696" text-anchor="end" font-family="Inter, Segoe UI, Arial" font-size="11" fill="#64748b">timestamp without time zone</text>
<rect x="52" y="1709" width="26" height="14" rx="4" fill="#e0f2fe"/><text x="65" y="1720" text-anchor="middle" font-family="Inter, Segoe UI, Arial" font-size="9" font-weight="700" fill="#0369a1">FK</text>
<text x="86" y="1720" font-family="Inter, Segoe UI, Arial" font-size="12" fill="#0f172a">userId</text>
<text x="356" y="1720" text-anchor="end" font-family="Inter, Segoe UI, Arial" font-size="11" fill="#64748b">text</text>
</g>
</svg>